<?xml version="1.0" encoding="utf-8"?>
<!-- Generator: Adobe Illustrator 27.5.0, SVG Export Plug-In . SVG Version: 6.00 Build 0)  -->
<svg version="1.1" id="Laag_1" xmlns="http://www.w3.org/2000/svg" xmlns:xlink="http://www.w3.org/1999/xlink" x="0px" y="0px"
	 viewBox="0 0 185.4 45.9" style="enable-background:new 0 0 185.4 45.9;" xml:space="preserve">
<style type="text/css">
	.st0{clip-path:url(#SVGID_00000165228641264703622440000013698470514454977722_);fill:#003F2D;}
	.st1{clip-path:url(#SVGID_00000165228641264703622440000013698470514454977722_);fill:#E8CE84;}
	.st2{fill:#E8CE84;}
</style>
<g>
	<defs>
		<rect id="SVGID_1_" width="249.4" height="164.4"/>
	</defs>
	<clipPath id="SVGID_00000177454613933316632530000005682427823110256287_">
		<use xlink:href="#SVGID_1_"  style="overflow:visible;"/>
	</clipPath>
	<path style="clip-path:url(#SVGID_00000177454613933316632530000005682427823110256287_);fill:#003F2D;" d="M58.1,32.7h3.6v-0.3
		l-1.1-0.2v-3.4H62c1.2,0,2.1-0.3,2.7-0.8c0.6-0.5,0.9-1.3,0.9-2.2c0-1-0.3-1.7-0.9-2.2c-0.6-0.5-1.5-0.8-2.7-0.8h-3.9v0.3l1.1,0.2
		v9l-1.1,0.2V32.7z M60.6,28.6v-5.4h1.2c1.5,0,2.3,0.8,2.3,2.5v0.5c0,1.7-0.8,2.5-2.3,2.5H60.6z M66.4,32.7h3.1v-0.2l-1-0.1v-4.6
		c0.2-0.3,0.4-0.6,0.6-0.7c0.2-0.2,0.4-0.2,0.5-0.2c0.2,0,0.3,0,0.4,0.1c0.1,0.1,0.1,0.2,0.1,0.3c0,0.1,0,0.3-0.1,0.4
		c0.2,0.2,0.4,0.3,0.6,0.3c0.2,0,0.4-0.1,0.6-0.2c0.1-0.1,0.2-0.3,0.2-0.5c0-0.3-0.1-0.5-0.4-0.7c-0.2-0.2-0.5-0.2-0.8-0.2
		c-0.7,0-1.2,0.4-1.8,1.1v-1h-2.1v0.2l0.9,0.1v5.7l-0.9,0.1V32.7z M75.1,32.9c0.6,0,1.1-0.1,1.6-0.4c0.5-0.3,0.9-0.7,1.2-1.2
		c0.3-0.5,0.4-1.1,0.4-1.7c0-0.7-0.1-1.2-0.4-1.7c-0.3-0.5-0.7-0.9-1.2-1.2c-0.5-0.3-1-0.4-1.6-0.4s-1.1,0.1-1.6,0.4
		c-0.5,0.3-0.9,0.7-1.2,1.2c-0.3,0.5-0.4,1.1-0.4,1.7c0,0.7,0.1,1.2,0.4,1.7c0.3,0.5,0.7,0.9,1.2,1.2C74,32.7,74.5,32.9,75.1,32.9
		 M75.1,32.6c-0.6,0-1.1-0.2-1.4-0.7c-0.3-0.4-0.5-1-0.5-1.8v-1.2c0-0.7,0.2-1.3,0.5-1.8c0.3-0.4,0.8-0.7,1.4-0.7s1.1,0.2,1.4,0.7
		c0.3,0.4,0.5,1,0.5,1.8v1.2c0,0.7-0.2,1.3-0.5,1.8C76.2,32.4,75.7,32.6,75.1,32.6 M82.6,32.9c0.7,0,1.2-0.2,1.7-0.5
		c0.5-0.4,0.7-0.8,0.9-1.5h-0.3c-0.1,0.5-0.4,0.9-0.8,1.3c-0.4,0.3-0.9,0.5-1.5,0.5c-0.6,0-1.1-0.2-1.4-0.7c-0.3-0.4-0.5-1-0.5-1.8
		v-1.2c0-0.8,0.2-1.4,0.5-1.8c0.3-0.4,0.8-0.6,1.4-0.6c0.4,0,0.7,0.1,1,0.3c0.2,0.2,0.4,0.4,0.4,0.7c0,0.1,0,0.3-0.1,0.4
		c-0.1,0.1-0.1,0.2-0.3,0.3c0,0.2,0.1,0.4,0.2,0.6c0.1,0.1,0.3,0.2,0.6,0.2c0.2,0,0.4-0.1,0.6-0.2c0.1-0.1,0.2-0.4,0.2-0.6
		c0-0.4-0.1-0.7-0.3-1c-0.2-0.3-0.5-0.5-0.9-0.7c-0.4-0.2-0.8-0.2-1.3-0.2c-0.6,0-1.1,0.1-1.6,0.4c-0.5,0.3-0.9,0.6-1.2,1.1
		c-0.3,0.5-0.5,1.1-0.5,1.8c0,0.7,0.1,1.2,0.4,1.7c0.3,0.5,0.7,0.9,1.2,1.2C81.4,32.7,82,32.9,82.6,32.9 M89.4,32.9
		c0.7,0,1.2-0.2,1.7-0.5c0.5-0.4,0.8-0.8,0.9-1.5h-0.3c-0.1,0.5-0.4,0.9-0.8,1.2c-0.4,0.3-0.9,0.5-1.5,0.5c-0.6,0-1.1-0.2-1.4-0.7
		c-0.3-0.4-0.5-1-0.5-1.8v-1.2H92c0-0.5-0.1-1-0.4-1.4c-0.2-0.4-0.6-0.7-1-1c-0.4-0.2-0.9-0.3-1.4-0.3c-0.6,0-1.1,0.1-1.6,0.4
		c-0.5,0.3-0.9,0.7-1.1,1.2c-0.3,0.5-0.4,1.1-0.4,1.7c0,0.7,0.1,1.2,0.4,1.7c0.3,0.5,0.7,0.9,1.2,1.2C88.2,32.7,88.8,32.9,89.4,32.9
		 M87.5,28.6c0-0.6,0.2-1.2,0.5-1.5c0.3-0.4,0.7-0.6,1.3-0.6c0.5,0,0.8,0.2,1,0.5c0.2,0.3,0.3,0.9,0.3,1.6H87.5z M95.5,32.9
		c0.8,0,1.4-0.2,1.7-0.6c0.4-0.4,0.6-0.9,0.6-1.5c0-0.4-0.1-0.8-0.3-1c-0.2-0.3-0.5-0.5-0.9-0.6l-1.7-0.6c-0.4-0.1-0.7-0.3-0.8-0.4
		c-0.1-0.1-0.2-0.3-0.2-0.5c0-0.2,0.1-0.4,0.2-0.6c0.1-0.2,0.3-0.3,0.6-0.4c0.3-0.1,0.6-0.2,0.9-0.2c0.4,0,0.7,0.1,0.9,0.2
		c0.2,0.1,0.3,0.3,0.3,0.6c0,0.1,0,0.2-0.1,0.3s-0.1,0.2-0.2,0.3c0,0.2,0.1,0.3,0.2,0.4c0.1,0.1,0.3,0.1,0.4,0.1s0.3-0.1,0.4-0.2
		c0.1-0.1,0.2-0.3,0.2-0.5c0-0.5-0.2-0.9-0.6-1.1c-0.4-0.3-0.9-0.4-1.5-0.4c-0.7,0-1.3,0.2-1.7,0.6c-0.4,0.4-0.6,0.9-0.6,1.4
		c0,0.7,0.4,1.2,1.1,1.5l1.9,0.7c0.4,0.1,0.7,0.3,0.8,0.4s0.2,0.3,0.2,0.5c0,0.4-0.2,0.7-0.5,0.9c-0.3,0.2-0.8,0.4-1.3,0.4
		c-0.4,0-0.7-0.1-0.9-0.3c-0.2-0.2-0.3-0.4-0.3-0.7c0-0.2,0.1-0.4,0.3-0.6c0-0.1-0.1-0.3-0.2-0.3s-0.3-0.1-0.4-0.1
		c-0.2,0-0.4,0.1-0.5,0.2c-0.1,0.1-0.2,0.3-0.2,0.6c0,0.5,0.2,0.8,0.7,1.1C94.2,32.7,94.8,32.9,95.5,32.9 M101.4,32.9
		c0.8,0,1.4-0.2,1.7-0.6c0.4-0.4,0.6-0.9,0.6-1.5c0-0.4-0.1-0.8-0.3-1c-0.2-0.3-0.5-0.5-0.9-0.6l-1.7-0.6c-0.4-0.1-0.7-0.3-0.8-0.4
		c-0.1-0.1-0.2-0.3-0.2-0.5c0-0.2,0.1-0.4,0.2-0.6c0.1-0.2,0.3-0.3,0.6-0.4c0.3-0.1,0.6-0.2,0.9-0.2c0.4,0,0.7,0.1,0.9,0.2
		c0.2,0.1,0.3,0.3,0.3,0.6c0,0.1,0,0.2-0.1,0.3s-0.1,0.2-0.2,0.3c0,0.2,0.1,0.3,0.2,0.4c0.1,0.1,0.3,0.1,0.4,0.1
		c0.2,0,0.3-0.1,0.4-0.2c0.1-0.1,0.2-0.3,0.2-0.5c0-0.5-0.2-0.9-0.6-1.1c-0.4-0.3-0.9-0.4-1.5-0.4c-0.7,0-1.3,0.2-1.7,0.6
		c-0.4,0.4-0.6,0.9-0.6,1.4c0,0.7,0.4,1.2,1.1,1.5l1.9,0.7c0.4,0.1,0.7,0.3,0.8,0.4s0.2,0.3,0.2,0.5c0,0.4-0.2,0.7-0.5,0.9
		c-0.3,0.2-0.8,0.4-1.3,0.4c-0.4,0-0.7-0.1-0.9-0.3c-0.2-0.2-0.3-0.4-0.3-0.7c0-0.2,0.1-0.4,0.3-0.6c-0.1-0.1-0.1-0.3-0.2-0.3
		c-0.1-0.1-0.3-0.1-0.4-0.1c-0.2,0-0.4,0.1-0.5,0.2c-0.1,0.1-0.2,0.3-0.2,0.6c0,0.5,0.2,0.8,0.7,1.1
		C100.1,32.7,100.7,32.9,101.4,32.9 M112.6,33c0.9,0,1.7-0.2,2.4-0.7c0.7-0.4,1.3-1,1.7-1.8c0.4-0.8,0.6-1.7,0.6-2.7
		s-0.2-1.9-0.6-2.7c-0.4-0.8-0.9-1.4-1.7-1.8c-0.7-0.4-1.5-0.7-2.4-0.7c-0.9,0-1.7,0.2-2.4,0.7c-0.7,0.4-1.3,1-1.7,1.8
		c-0.4,0.8-0.6,1.7-0.6,2.7s0.2,1.9,0.6,2.7c0.4,0.8,0.9,1.4,1.7,1.8C110.9,32.8,111.7,33,112.6,33 M112.6,32.7
		c-0.6,0-1.1-0.2-1.6-0.5c-0.5-0.3-0.8-0.8-1.1-1.4c-0.3-0.6-0.4-1.3-0.4-2.1v-1.9c0-0.8,0.1-1.5,0.4-2.1c0.3-0.6,0.6-1.1,1.1-1.4
		c0.5-0.3,1-0.5,1.6-0.5c0.6,0,1.1,0.2,1.6,0.5c0.5,0.3,0.8,0.8,1.1,1.4c0.3,0.6,0.4,1.3,0.4,2.1v1.9c0,0.8-0.1,1.5-0.4,2.1
		c-0.3,0.6-0.6,1.1-1.1,1.4C113.7,32.5,113.1,32.7,112.6,32.7 M118.1,36.2h3.3V36l-1.2-0.1v-4.4c0.2,0.4,0.5,0.8,0.8,1
		c0.4,0.3,0.8,0.4,1.3,0.4c0.6,0,1.1-0.1,1.5-0.4c0.4-0.3,0.8-0.7,1-1.2c0.2-0.5,0.4-1.1,0.4-1.7s-0.1-1.2-0.4-1.7
		c-0.2-0.5-0.6-0.9-1-1.2c-0.4-0.3-1-0.4-1.5-0.4c-0.5,0-0.9,0.1-1.3,0.4c-0.3,0.3-0.6,0.6-0.8,1v-1.3h-2.1v0.2l0.9,0.1v9.1
		l-0.9,0.1V36.2z M122.2,32.6c-0.4,0-0.7-0.1-1-0.3c-0.3-0.2-0.5-0.5-0.7-0.9c-0.2-0.4-0.3-0.8-0.3-1.2v-1.3c0-0.4,0.1-0.8,0.3-1.1
		c0.2-0.4,0.4-0.6,0.7-0.8c0.3-0.2,0.6-0.3,1-0.3c1.1,0,1.7,0.8,1.7,2.4v1.2C123.9,31.8,123.3,32.6,122.2,32.6 M128.7,32.9
		c0.5,0,1-0.2,1.3-0.5l-0.2-0.2c0,0-0.1,0-0.1,0.1c-0.1,0-0.2,0.1-0.3,0.1c-0.1,0-0.2,0.1-0.4,0.1c-0.6,0-0.9-0.4-0.9-1.3v-4.4
		l1.6-0.1v-0.2h-1.6V25l-1.2,0.3v1H126v0.2l0.9,0.1v4.4c0,0.6,0.2,1,0.5,1.3C127.7,32.7,128.2,32.9,128.7,32.9 M131.8,24.9
		c0.2,0,0.4-0.1,0.6-0.2c0.2-0.2,0.2-0.4,0.2-0.6s-0.1-0.4-0.2-0.6c-0.2-0.2-0.3-0.2-0.6-0.2c-0.2,0-0.4,0.1-0.6,0.2
		c-0.2,0.2-0.2,0.3-0.2,0.6s0.1,0.4,0.2,0.6C131.3,24.8,131.5,24.9,131.8,24.9 M133.4,32.7v-0.2l-0.9-0.1v-6h-2.1v0.2l0.9,0.1v5.6
		l-0.9,0.1v0.2H133.4z M134,32.7h2.8v-0.2l-0.7-0.1v-4.5c0.3-0.4,0.5-0.7,0.9-0.9c0.3-0.2,0.6-0.3,1-0.3c0.4,0,0.6,0.1,0.8,0.3
		c0.2,0.2,0.2,0.6,0.2,1v4.3l-0.7,0.1v0.2h2.7v-0.2l-0.7-0.1v-4.5c0.3-0.4,0.5-0.7,0.9-0.9c0.3-0.2,0.6-0.3,1-0.3
		c0.4,0,0.6,0.1,0.8,0.3c0.2,0.2,0.2,0.6,0.2,1v4.3l-0.7,0.1v0.2h2.8v-0.2l-0.9-0.1V28c0-0.6-0.2-1-0.5-1.3
		c-0.3-0.3-0.8-0.4-1.4-0.4c-0.5,0-0.9,0.1-1.2,0.4c-0.4,0.2-0.7,0.6-1,1c-0.1-0.4-0.3-0.8-0.6-1c-0.3-0.2-0.7-0.3-1.2-0.3
		c-0.4,0-0.8,0.1-1.2,0.3c-0.4,0.2-0.7,0.5-1,0.9v-1.1H134v0.2l0.9,0.1v5.7l-0.9,0.1V32.7z M147,24.9c0.2,0,0.4-0.1,0.6-0.2
		c0.2-0.2,0.2-0.4,0.2-0.6s-0.1-0.4-0.2-0.6c-0.2-0.2-0.3-0.2-0.6-0.2c-0.2,0-0.4,0.1-0.6,0.2c-0.2,0.2-0.2,0.3-0.2,0.6
		s0.1,0.4,0.2,0.6C146.6,24.8,146.8,24.9,147,24.9 M148.7,32.7v-0.2l-0.9-0.1v-6h-2.1v0.2l0.9,0.1v5.6l-0.9,0.1v0.2H148.7z
		 M154.7,32.7l0.2-2.4h-0.3l-1.1,2.1h-2.6l3.8-5.8v-0.3h-5.1l-0.2,2.2h0.3l1-1.9h2.4l-3.8,5.8v0.3H154.7z M157.7,32.9
		c0.5,0,0.9-0.1,1.4-0.4c0.4-0.2,0.7-0.6,0.9-1c0,0.5,0.1,0.8,0.4,1c0.3,0.2,0.6,0.3,1,0.3c0.3,0,0.6-0.1,0.8-0.2
		c0.2-0.2,0.3-0.4,0.3-0.7h-0.3c0,0.2,0,0.3-0.1,0.4c-0.1,0.1-0.2,0.1-0.3,0.1c-0.1,0-0.3,0-0.3-0.1c-0.1-0.1-0.1-0.2-0.1-0.4v-3.5
		c0-1.4-0.8-2.1-2.5-2.1c-0.7,0-1.3,0.1-1.8,0.4c-0.5,0.3-0.7,0.7-0.7,1.1c0,0.3,0.1,0.5,0.2,0.6s0.3,0.2,0.6,0.2
		c0.2,0,0.4-0.1,0.6-0.2c0.2-0.2,0.2-0.3,0.2-0.5c-0.2-0.1-0.3-0.2-0.3-0.5c0-0.3,0.1-0.5,0.3-0.6c0.2-0.2,0.5-0.2,0.9-0.2
		c0.3,0,0.6,0,0.8,0.1c0.2,0.1,0.3,0.3,0.4,0.5s0.1,0.6,0.1,1v1h-0.8c-0.9,0-1.6,0.2-2.3,0.5c-0.7,0.3-1,0.9-1,1.7
		c0,0.5,0.2,1,0.5,1.2C156.7,32.7,157.2,32.9,157.7,32.9 M158.4,32.3c-0.4,0-0.7-0.1-0.9-0.3c-0.2-0.2-0.3-0.5-0.3-1
		c0-0.5,0.2-1,0.5-1.3c0.3-0.3,0.8-0.5,1.5-0.5h0.8v1.3c0,0.4-0.1,0.7-0.3,0.9c-0.2,0.3-0.4,0.4-0.6,0.6
		C158.8,32.3,158.6,32.3,158.4,32.3 M165.2,32.9c0.5,0,1-0.2,1.3-0.5l-0.2-0.2c0,0-0.1,0-0.1,0.1c-0.1,0-0.2,0.1-0.3,0.1
		c-0.1,0-0.2,0.1-0.4,0.1c-0.6,0-0.9-0.4-0.9-1.3v-4.4l1.6-0.1v-0.2h-1.6V25l-1.2,0.3v1h-0.9v0.2l0.9,0.1v4.4c0,0.6,0.2,1,0.5,1.3
		C164.2,32.7,164.7,32.9,165.2,32.9 M168.3,24.9c0.2,0,0.4-0.1,0.6-0.2c0.2-0.2,0.2-0.4,0.2-0.6s-0.1-0.4-0.2-0.6
		c-0.2-0.2-0.3-0.2-0.6-0.2c-0.2,0-0.4,0.1-0.6,0.2c-0.2,0.2-0.2,0.3-0.2,0.6s0.1,0.4,0.2,0.6C167.8,24.8,168,24.9,168.3,24.9
		 M169.9,32.7v-0.2l-0.9-0.1v-6h-2.1v0.2l0.9,0.1v5.6l-0.9,0.1v0.2H169.9z M173.9,32.9c0.6,0,1.1-0.1,1.6-0.4
		c0.5-0.3,0.9-0.7,1.2-1.2c0.3-0.5,0.4-1.1,0.4-1.7c0-0.7-0.1-1.2-0.4-1.7c-0.3-0.5-0.7-0.9-1.2-1.2c-0.5-0.3-1-0.4-1.6-0.4
		s-1.1,0.1-1.6,0.4c-0.5,0.3-0.9,0.7-1.2,1.2c-0.3,0.5-0.4,1.1-0.4,1.7c0,0.7,0.1,1.2,0.4,1.7c0.3,0.5,0.7,0.9,1.2,1.2
		C172.8,32.7,173.3,32.9,173.9,32.9 M173.9,32.6c-0.6,0-1.1-0.2-1.4-0.7c-0.3-0.4-0.5-1-0.5-1.8v-1.2c0-0.7,0.2-1.3,0.5-1.8
		c0.3-0.4,0.8-0.7,1.4-0.7c0.6,0,1.1,0.2,1.4,0.7c0.3,0.4,0.5,1,0.5,1.8v1.2c0,0.7-0.2,1.3-0.5,1.8C175,32.4,174.5,32.6,173.9,32.6
		 M178,32.7h2.8v-0.2l-0.7-0.1v-4.3c0.3-0.4,0.6-0.7,0.9-1c0.3-0.3,0.7-0.4,1.1-0.4c0.4,0,0.6,0.1,0.8,0.4c0.2,0.2,0.3,0.6,0.3,1
		v4.3l-0.7,0.1v0.2h2.8v-0.2l-0.9-0.1V28c0-0.6-0.2-1-0.5-1.3c-0.3-0.3-0.8-0.4-1.4-0.4c-0.5,0-0.9,0.1-1.3,0.4
		c-0.4,0.3-0.8,0.6-1.1,1.1v-1.3H178v0.2l0.9,0.1v5.7l-0.9,0.1V32.7z"/>
	<path style="clip-path:url(#SVGID_00000177454613933316632530000005682427823110256287_);fill:#E8CE84;" d="M50.3,5.4V3.1
		c0-1.4-1.1-2.5-2.5-2.5h-27c-1.4,0-2.5,1.1-2.5,2.5v2.3v18.2c0,1,0.8,1.8,1.8,1.8H21h0.9h15.8c1,0,1.8-0.7,1.8-1.7
		c0-1-0.8-1.8-1.8-1.8h-6.8c-1.4,0-2.5-1.1-2.5-2.5V19c0-1.4,1.1-2.5,2.5-2.5h6.8c1,0,1.8-0.8,1.8-1.8c0-1-0.9-1.7-1.8-1.7h-9.3
		c-2.1,0-3.8,1.7-3.8,3.8v1.4c0,0.8,0,1.6,0.4,2.1c0.2,0.3,0.6,0.8-0.7,0.8c-1.4,0-2.5-1.1-2.5-2.5V7.9c0-1.4,1.1-2.5,2.5-2.5H38
		c0.2,0,0.3,0.1,0.3,0.3l0,0.8c0,2.4,2,4.4,4.4,4.4h2.6c0.2,0,0.3,0.1,0.3,0.3v17.3c0,1.8-1.5,3.2-3.2,3.2H19.1
		c-1.8,0-3.2-1.5-3.2-3.2V2.7c0-1.2-0.9-2.1-2.1-2.1c-1.2,0-2.1,0.9-2.1,2.1V37c0,1.8-1.5,3.2-3.2,3.2H2.7c-1.2,0-2.2,1-2.2,2.2
		c0,1.2,1,2.2,2.2,2.2h8.8c2.4,0,4.3-1.9,4.3-4.3v-0.1v-3.5c0-0.2,0.1-0.3,0.3-0.3h29.4c2.6,0,4.8-2.1,4.8-4.8L50.3,5.4L50.3,5.4z
		 M43.8,8.1c-1.2,0-2.2-1-2.2-2.2s1-2.2,2.2-2.2c1.2,0,2.2,1,2.2,2.2S45.1,8.1,43.8,8.1"/>
</g>
<path class="st2" d="M120.5,3.8l2.1,6.3h-4.5L120.5,3.8z M118.2,15.4V15l-1.6-0.7l1.4-3.8h4.8l1.5,4.2l-1.5,0.2v0.4h5.3V15l-1.6-0.3
	l-4.9-14h-0.3l-5.2,13.6l-1.8,0.7v0.4H118.2z M114,15.4V11h-0.5l-1.5,3.9h-5.3V1.7l1.6-0.2V1.1h-5.3v0.4l1.6,0.2v13l-1.6,0.3v0.4
	H114z M101.4,15.4V11h-0.5l-1.5,3.9h-5.6V8.4h2.3l1.1,2.6h0.5V5.3h-0.5l-1.1,2.6h-2.3V1.5h5.3l1.4,3.6h0.5V1.1H90.2v0.4l1.6,0.2v13
	L90.2,15v0.4H101.4z M79.9,15.5l5.3-13.3v12.5L83.5,15v0.4h5.3V15l-1.6-0.3v-13l1.6-0.2V1.1h-3.6l-4.6,11.5L76.1,1.1h-4v0.4l1.6,0.2
	v12.6L72.1,15v0.4H76V15l-1.7-0.7V1.7l5.3,13.8H79.9z M64.2,3.8l2.1,6.3h-4.5L64.2,3.8z M61.9,15.4V15l-1.6-0.7l1.4-3.8h4.8l1.5,4.2
	L66.5,15v0.4h5.3V15l-1.6-0.3l-4.9-14H65l-5.2,13.6L58.1,15v0.4H61.9z"/>
</svg>
